<svg xmlns="http://www.w3.org/2000/svg" xmlns:xlink="http://www.w3.org/1999/xlink" xmlns:s="https://github.com/nturley/netlistsvg" width="235" height="153"><style>svg {
  stroke:#000;
  fill:none;
}
text {
  fill:#000;
  stroke:none;
  font-size:10px;
  font-weight: bold;
  font-family: "Courier New", monospace;
}
line {
    stroke-linecap: round;
}
.nodelabel {
  text-anchor: middle;
}
.inputPortLabel {
  text-anchor: end;
}
.splitjoinBody {
  fill:#000;
}</style><rect width="100%" height="100%" fill="white"/><g s:type="add" transform="translate(183,91)" s:width="25" s:height="25" id="cell_\6"><s:alias val="$add"/><circle r="12.5" cx="12.5" cy="12.5" fill="#ffc9c3" class="cell_\6"/><line x1="7.5" x2="17.5" y1="12.5" y2="12.5" class="cell_\6"/><line x1="12.5" x2="12.5" y1="7.5" y2="17.5" class="cell_\6"/><g s:x="2" s:y="5" s:pid="A"/><g s:x="2" s:y="20" s:pid="B"/><g s:x="26" s:y="12.5" s:pid="Y"/></g><g s:type="dff" transform="translate(78,36)" s:width="30" s:height="40" id="cell_\9"><s:alias val="$dff"/><s:alias val="$_DFF_"/><s:alias val="$_DFF_P_"/><s:alias val="dff-bus"/><s:alias val="$dff-bus"/><s:alias val="$_DFF_-bus"/><s:alias val="$_DFF_P_-bus"/><rect width="30" height="40" x="0" y="0" fill="#ffef8b" class="cell_\9"/><path d="M0,35 L5,30 L0,25" class="cell_\9"/><g s:x="31" s:y="10" s:pid="Q"/><g s:x="-1" s:y="30" s:pid="CLK"/><g s:x="-1" s:y="30" s:pid="C"/><g s:x="-1" s:y="10" s:pid="D"/></g><g s:type="inputExt" transform="translate(12,56)" s:width="30" s:height="20" id="cell_clk"><text x="15" y="-4" class="nodelabel cell_clk" s:attribute="ref">clk</text><s:alias val="$_inputExt_"/><path d="M0,0 L0,20 L15,20 L30,10 L15,0 Z" fill="#8bcaff" class="cell_clk"/><g s:x="30" s:y="10" s:pid="Y"/></g><g s:type="outputExt" transform="translate(183,36)" s:width="30" s:height="20" id="cell_o"><text x="15" y="-4" class="nodelabel cell_o" s:attribute="ref">o</text><s:alias val="$_outputExt_"/><path d="M30,0 L30,20 L15,20 L0,10 L15,0 Z" fill="#169300" class="cell_o"/><g s:x="0" s:y="10" s:pid="A"/></g><g s:type="constant" transform="translate(78,121)" s:width="30" s:height="20" id="cell_01"><text x="15" y="-4" class="nodelabel cell_01" s:attribute="ref">01</text><s:alias val="$_constant_"/><rect width="30" height="20" fill="#745bff" class="cell_01"/><g s:x="31" s:y="10" s:pid="Y"/></g><line x1="109" x2="119" y1="46" y2="46" class="net_3,4 width_2" style="stroke-width: 2"/><line x1="119" x2="119" y1="46" y2="96" class="net_3,4 width_2" style="stroke-width: 2"/><circle cx="119" cy="46" r="3" style="fill:#000" class="net_3,4 width_2"/><line x1="119" x2="185" y1="96" y2="96" class="net_3,4 width_2" style="stroke-width: 2"/><line x1="109" x2="183" y1="46" y2="46" class="net_3,4 width_2" style="stroke-width: 2"/><line x1="109" x2="158" y1="131" y2="131" class="net_7,8 width_2" style="stroke-width: 2"/><line x1="158" x2="158" y1="131" y2="111" class="net_7,8 width_2" style="stroke-width: 2"/><line x1="158" x2="185" y1="111" y2="111" class="net_7,8 width_2" style="stroke-width: 2"/><line x1="42" x2="77" y1="66" y2="66" class="net_2 width_1" style="stroke-width: 1"/><line x1="209" x2="223" y1="103.5" y2="103.5" class="net_5,6 width_2" style="stroke-width: 2"/><line x1="223" x2="223" y1="103.5" y2="16" class="net_5,6 width_2" style="stroke-width: 2"/><line x1="223" x2="52" y1="16" y2="16" class="net_5,6 width_2" style="stroke-width: 2"/><line x1="52" x2="52" y1="16" y2="46" class="net_5,6 width_2" style="stroke-width: 2"/><line x1="52" x2="77" y1="46" y2="46" class="net_5,6 width_2" style="stroke-width: 2"/><rect x="145" y="41" width="16" height="9" class="net_3,4 width_2 busLabel_2" style="fill: white; stroke: none"/><text x="144" y="49" class="net_3,4 width_2 busLabel_2">/2/</text><rect x="145" y="41" width="16" height="9" class="net_3,4 width_2 busLabel_2" style="fill: white; stroke: none"/><text x="144" y="49" class="net_3,4 width_2 busLabel_2">/2/</text><rect x="145" y="126" width="16" height="9" class="net_7,8 width_2 busLabel_2" style="fill: white; stroke: none"/><text x="144" y="134" class="net_7,8 width_2 busLabel_2">/2/</text><rect x="145" y="11" width="16" height="9" class="net_5,6 width_2 busLabel_2" style="fill: white; stroke: none"/><text x="144" y="19" class="net_5,6 width_2 busLabel_2">/2/</text></svg>