<svg xmlns="http://www.w3.org/2000/svg" xmlns:xlink="http://www.w3.org/1999/xlink" xmlns:s="https://github.com/nturley/netlistsvg" width="459" height="314"><style>svg {
  stroke:#000;
  fill:none;
}
text {
  fill:#000;
  stroke:none;
  font-size:10px;
  font-weight: bold;
  font-family: "Courier New", monospace;
}
line {
    stroke-linecap: round;
}
.nodelabel {
  text-anchor: middle;
}
.inputPortLabel {
  text-anchor: end;
}
.splitjoinBody {
  fill:#000;
}</style><g s:type="mux-bus" transform="translate(408,91)" s:width="24" s:height="40" id="cell_\12"><s:alias val="$pmux-bus"/><s:alias val="$mux-bus"/><s:alias val="$_MUX_-bus"/><path d="M8,2 L8,0 L24,8 L24,32 L8,40 L8,38" fill="#ffffff" class="cell_\12"/><path d="M4,2 L4,0 L22,9 L22,31 L4,40 L4,38" fill="#ffffff" class="cell_\12"/><path d="M0,0 L20,10 L20,30 L0,40 Z" fill="#ffffff" class="cell_\12"/><text x="5" y="32" class="nodelabel cell_\12" s:attribute="">1</text><text x="5" y="13" class="nodelabel cell_\12" s:attribute="">0</text><g s:x="-1" s:y="10" s:pid="A"/><g s:x="-1" s:y="30" s:pid="B"/><g s:x="12" s:y="38" s:pid="S"/><g s:x="24.5" s:y="20" s:pid="Y"/></g><g s:type="dff" transform="translate(276,36)" s:width="30" s:height="40" id="cell_\13"><s:alias val="$dff"/><s:alias val="$_DFF_"/><s:alias val="$_DFF_P_"/><s:alias val="dff-bus"/><s:alias val="$dff-bus"/><s:alias val="$_DFF_-bus"/><s:alias val="$_DFF_P_-bus"/><rect width="30" height="40" x="0" y="0" fill="#ffef8b" class="cell_\13"/><path d="M0,35 L5,30 L0,25" class="cell_\13"/><g s:x="31" s:y="10" s:pid="Q"/><g s:x="-1" s:y="30" s:pid="CLK"/><g s:x="-1" s:y="30" s:pid="C"/><g s:x="-1" s:y="10" s:pid="D"/></g><g s:type="mux-bus" transform="translate(278,111)" s:width="24" s:height="40" id="cell_\9"><s:alias val="$pmux-bus"/><s:alias val="$mux-bus"/><s:alias val="$_MUX_-bus"/><path d="M8,2 L8,0 L24,8 L24,32 L8,40 L8,38" fill="#ffffff" class="cell_\9"/><path d="M4,2 L4,0 L22,9 L22,31 L4,40 L4,38" fill="#ffffff" class="cell_\9"/><path d="M0,0 L20,10 L20,30 L0,40 Z" fill="#ffffff" class="cell_\9"/><text x="5" y="32" class="nodelabel cell_\9" s:attribute="">1</text><text x="5" y="13" class="nodelabel cell_\9" s:attribute="">0</text><g s:x="-1" s:y="10" s:pid="A"/><g s:x="-1" s:y="30" s:pid="B"/><g s:x="12" s:y="38" s:pid="S"/><g s:x="24.5" s:y="20" s:pid="Y"/></g><g s:type="inputExt" transform="translate(210,56)" s:width="30" s:height="20" id="cell_clk"><text x="15" y="-4" class="nodelabel cell_clk" s:attribute="ref">clk</text><s:alias val="$_inputExt_"/><path d="M0,0 L0,20 L15,20 L30,10 L15,0 Z" fill="#8bcaff" class="cell_clk"/><g s:x="30" s:y="10" s:pid="Y"/></g><g s:type="inputExt" transform="translate(12,211)" s:width="30" s:height="20" id="cell_in_a"><text x="15" y="-4" class="nodelabel cell_in_a" s:attribute="ref">in_a</text><s:alias val="$_inputExt_"/><path d="M0,0 L0,20 L15,20 L30,10 L15,0 Z" fill="#8bcaff" class="cell_in_a"/><g s:x="30" s:y="10" s:pid="Y"/></g><g s:type="inputExt" transform="translate(12,101)" s:width="30" s:height="20" id="cell_in_b"><text x="15" y="-4" class="nodelabel cell_in_b" s:attribute="ref">in_b</text><s:alias val="$_inputExt_"/><path d="M0,0 L0,20 L15,20 L30,10 L15,0 Z" fill="#8bcaff" class="cell_in_b"/><g s:x="30" s:y="10" s:pid="Y"/></g><g s:type="inputExt" transform="translate(342,182)" s:width="30" s:height="20" id="cell_sel0"><text x="15" y="-4" class="nodelabel cell_sel0" s:attribute="ref">sel0</text><s:alias val="$_inputExt_"/><path d="M0,0 L0,20 L15,20 L30,10 L15,0 Z" fill="#8bcaff" class="cell_sel0"/><g s:x="30" s:y="10" s:pid="Y"/></g><g s:type="inputExt" transform="translate(210,282)" s:width="30" s:height="20" id="cell_sel1"><text x="15" y="-4" class="nodelabel cell_sel1" s:attribute="ref">sel1</text><s:alias val="$_inputExt_"/><path d="M0,0 L0,20 L15,20 L30,10 L15,0 Z" fill="#8bcaff" class="cell_sel1"/><g s:x="30" s:y="10" s:pid="Y"/></g><g s:type="outputExt" transform="translate(407,36)" s:width="30" s:height="20" id="cell_o"><text x="15" y="-4" class="nodelabel cell_o" s:attribute="ref">o</text><s:alias val="$_outputExt_"/><path d="M30,0 L30,20 L15,20 L0,10 L15,0 Z" fill="#169300" class="cell_o"/><g s:x="0" s:y="10" s:pid="A"/></g><g s:type="constant" transform="translate(77,162)" s:width="30" s:height="20" id="cell_1"><text x="15" y="-4" class="nodelabel cell_1" s:attribute="ref">1</text><s:alias val="$_constant_"/><rect width="30" height="20" fill="#745bff" class="cell_1"/><g s:x="31" s:y="10" s:pid="Y"/></g><g s:type="constant" transform="translate(77,272)" s:width="30" s:height="20" id="cell_0"><text x="15" y="-4" class="nodelabel cell_0" s:attribute="ref">0</text><s:alias val="$_constant_"/><rect width="30" height="20" fill="#745bff" class="cell_0"/><g s:x="31" s:y="10" s:pid="Y"/></g><g s:type="join" transform="translate(169,100.5)" s:width="5" s:height="40" id="cell_$join$,15,16,17,18,19,20,21,22,23,24,25,26,68,"><rect width="5" height="40" class="splitjoinBody" s:generic="body"/><s:alias val="$_join_"/><g s:x="5" s:y="20" s:pid="out"/><g transform="translate(-1,10)" s:x="-1" s:y="10" s:pid="in0"><text x="-3" y="-4" class="inputPortLabel">0:11</text></g><g transform="translate(-1,30)" s:x="-1" s:y="10" s:pid="in0"><text x="-3" y="-4" class="inputPortLabel">12</text></g></g><g s:type="join" transform="translate(169,210.5)" s:width="5" s:height="40" id="cell_$join$,3,4,5,6,7,8,9,10,11,12,13,14,69,"><rect width="5" height="40" class="splitjoinBody" s:generic="body"/><s:alias val="$_join_"/><g s:x="5" s:y="20" s:pid="out"/><g transform="translate(-1,10)" s:x="-1" s:y="10" s:pid="in0"><text x="-3" y="-4" class="inputPortLabel">0:11</text></g><g transform="translate(-1,30)" s:x="-1" s:y="10" s:pid="in0"><text x="-3" y="-4" class="inputPortLabel">12</text></g></g><line x1="307" x2="317" y1="46" y2="46" class="net_29,30,31,32,33,34,35,36,37,38,39,40,41 width_13" style="stroke-width: 2"/><line x1="317" x2="317" y1="46" y2="101" class="net_29,30,31,32,33,34,35,36,37,38,39,40,41 width_13" style="stroke-width: 2"/><circle cx="317" cy="46" r="3" style="fill:#000" class="net_29,30,31,32,33,34,35,36,37,38,39,40,41 width_13"/><line x1="317" x2="407" y1="101" y2="101" class="net_29,30,31,32,33,34,35,36,37,38,39,40,41 width_13" style="stroke-width: 2"/><line x1="307" x2="407" y1="46" y2="46" class="net_29,30,31,32,33,34,35,36,37,38,39,40,41 width_13" style="stroke-width: 2"/><line x1="302.5" x2="382" y1="131" y2="131" class="net_42,43,44,45,46,47,48,49,50,51,52,53,54 width_13" style="stroke-width: 2"/><line x1="382" x2="382" y1="131" y2="121" class="net_42,43,44,45,46,47,48,49,50,51,52,53,54 width_13" style="stroke-width: 2"/><line x1="382" x2="407" y1="121" y2="121" class="net_42,43,44,45,46,47,48,49,50,51,52,53,54 width_13" style="stroke-width: 2"/><line x1="372" x2="420" y1="192" y2="192" class="net_27 width_1" style="stroke-width: 1"/><line x1="420" x2="420" y1="192" y2="129" class="net_27 width_1" style="stroke-width: 1"/><line x1="240" x2="275" y1="66" y2="66" class="net_2 width_1" style="stroke-width: 1"/><line x1="432.5" x2="447" y1="111" y2="111" class="net_55,56,57,58,59,60,61,62,63,64,65,66,67 width_13" style="stroke-width: 2"/><line x1="447" x2="447" y1="111" y2="16" class="net_55,56,57,58,59,60,61,62,63,64,65,66,67 width_13" style="stroke-width: 2"/><line x1="447" x2="250" y1="16" y2="16" class="net_55,56,57,58,59,60,61,62,63,64,65,66,67 width_13" style="stroke-width: 2"/><line x1="250" x2="250" y1="16" y2="46" class="net_55,56,57,58,59,60,61,62,63,64,65,66,67 width_13" style="stroke-width: 2"/><line x1="250" x2="275" y1="46" y2="46" class="net_55,56,57,58,59,60,61,62,63,64,65,66,67 width_13" style="stroke-width: 2"/><line x1="175" x2="277" y1="121" y2="121" class="net_15,16,17,18,19,20,21,22,23,24,25,26,68 width_13" style="stroke-width: 2"/><line x1="175" x2="250" y1="231" y2="231" class="net_3,4,5,6,7,8,9,10,11,12,13,14,69 width_13" style="stroke-width: 2"/><line x1="250" x2="250" y1="231" y2="141" class="net_3,4,5,6,7,8,9,10,11,12,13,14,69 width_13" style="stroke-width: 2"/><line x1="250" x2="277" y1="141" y2="141" class="net_3,4,5,6,7,8,9,10,11,12,13,14,69 width_13" style="stroke-width: 2"/><line x1="240" x2="290" y1="292" y2="292" class="net_28 width_1" style="stroke-width: 1"/><line x1="290" x2="290" y1="292" y2="149" class="net_28 width_1" style="stroke-width: 1"/><line x1="42" x2="168" y1="111" y2="111" class="net_15,16,17,18,19,20,21,22,23,24,25,26 width_12" style="stroke-width: 2"/><line x1="108" x2="118" y1="172" y2="172" class="net_68 width_1" style="stroke-width: 1"/><line x1="118" x2="118" y1="172" y2="131" class="net_68 width_1" style="stroke-width: 1"/><line x1="118" x2="168" y1="131" y2="131" class="net_68 width_1" style="stroke-width: 1"/><line x1="42" x2="168" y1="221" y2="221" class="net_3,4,5,6,7,8,9,10,11,12,13,14 width_12" style="stroke-width: 2"/><line x1="108" x2="118" y1="282" y2="282" class="net_69 width_1" style="stroke-width: 1"/><line x1="118" x2="118" y1="282" y2="241" class="net_69 width_1" style="stroke-width: 1"/><line x1="118" x2="168" y1="241" y2="241" class="net_69 width_1" style="stroke-width: 1"/><rect x="356" y="41" width="22" height="9" class="net_29,30,31,32,33,34,35,36,37,38,39,40,41 width_13 busLabel_13" style="fill: white; stroke: none"/><text x="355" y="49" class="net_29,30,31,32,33,34,35,36,37,38,39,40,41 width_13 busLabel_13">/13/</text><rect x="356" y="41" width="22" height="9" class="net_29,30,31,32,33,34,35,36,37,38,39,40,41 width_13 busLabel_13" style="fill: white; stroke: none"/><text x="355" y="49" class="net_29,30,31,32,33,34,35,36,37,38,39,40,41 width_13 busLabel_13">/13/</text><rect x="356" y="126" width="22" height="9" class="net_42,43,44,45,46,47,48,49,50,51,52,53,54 width_13 busLabel_13" style="fill: white; stroke: none"/><text x="355" y="134" class="net_42,43,44,45,46,47,48,49,50,51,52,53,54 width_13 busLabel_13">/13/</text><rect x="356" y="11" width="22" height="9" class="net_55,56,57,58,59,60,61,62,63,64,65,66,67 width_13 busLabel_13" style="fill: white; stroke: none"/><text x="355" y="19" class="net_55,56,57,58,59,60,61,62,63,64,65,66,67 width_13 busLabel_13">/13/</text><rect x="224" y="116" width="22" height="9" class="net_15,16,17,18,19,20,21,22,23,24,25,26,68 width_13 busLabel_13" style="fill: white; stroke: none"/><text x="223" y="124" class="net_15,16,17,18,19,20,21,22,23,24,25,26,68 width_13 busLabel_13">/13/</text><rect x="224" y="226" width="22" height="9" class="net_3,4,5,6,7,8,9,10,11,12,13,14,69 width_13 busLabel_13" style="fill: white; stroke: none"/><text x="223" y="234" class="net_3,4,5,6,7,8,9,10,11,12,13,14,69 width_13 busLabel_13">/13/</text><rect x="91.5" y="106" width="22" height="9" class="net_15,16,17,18,19,20,21,22,23,24,25,26 width_12 busLabel_12" style="fill: white; stroke: none"/><text x="90.5" y="114" class="net_15,16,17,18,19,20,21,22,23,24,25,26 width_12 busLabel_12">/12/</text><rect x="91.5" y="216" width="22" height="9" class="net_3,4,5,6,7,8,9,10,11,12,13,14 width_12 busLabel_12" style="fill: white; stroke: none"/><text x="90.5" y="224" class="net_3,4,5,6,7,8,9,10,11,12,13,14 width_12 busLabel_12">/12/</text></svg>